<svg xmlns="http://www.w3.org/2000/svg" width="760" height="322" viewBox="0 0 760 322" font-family="system-ui, sans-serif">
<rect width="760" height="322" fill="#ffffff"/>
<text x="16" y="26" font-size="15" font-weight="600" fill="#1a1a1a">Probe pass rate across 10 pages</text>
<text x="200" y="60" font-size="12" text-anchor="end" fill="#333">html-to-markdown (go)</text>
<rect x="210" y="49" width="460.0" height="16" rx="3" fill="#2f6f9f"/>
<text x="678.0" y="62" font-size="12" fill="#444">96%</text>
<text x="200" y="86" font-size="12" text-anchor="end" fill="#333">markdownify</text>
<rect x="210" y="75" width="458.3" height="16" rx="3" fill="#c2632b"/>
<text x="676.3" y="88" font-size="12" fill="#444">96%</text>
<text x="200" y="112" font-size="12" text-anchor="end" fill="#333">html-to-markdown (py)</text>
<rect x="210" y="101" width="444.3" height="16" rx="3" fill="#3f8a58"/>
<text x="662.3" y="114" font-size="12" fill="#444">93%</text>
<text x="200" y="138" font-size="12" text-anchor="end" fill="#333">htmd</text>
<rect x="210" y="127" width="439.0" height="16" rx="3" fill="#8a4f9e"/>
<text x="657.0" y="140" font-size="12" fill="#444">92%</text>
<text x="200" y="164" font-size="12" text-anchor="end" fill="#333">turndown</text>
<rect x="210" y="153" width="430.3" height="16" rx="3" fill="#b03a48"/>
<text x="648.3" y="166" font-size="12" fill="#444">90%</text>
<text x="200" y="190" font-size="12" text-anchor="end" fill="#333">markitdown</text>
<rect x="210" y="179" width="430.3" height="16" rx="3" fill="#7a6a3a"/>
<text x="648.3" y="192" font-size="12" fill="#444">90%</text>
<text x="200" y="216" font-size="12" text-anchor="end" fill="#333">node-html-markdown</text>
<rect x="210" y="205" width="423.3" height="16" rx="3" fill="#4a7fb5"/>
<text x="641.3" y="218" font-size="12" fill="#444">89%</text>
<text x="200" y="242" font-size="12" text-anchor="end" fill="#333">html2text</text>
<rect x="210" y="231" width="419.8" height="16" rx="3" fill="#d08a3e"/>
<text x="637.8" y="244" font-size="12" fill="#444">88%</text>
<text x="200" y="268" font-size="12" text-anchor="end" fill="#333">trafilatura</text>
<rect x="210" y="257" width="386.5" height="16" rx="3" fill="#5aa06f"/>
<text x="604.5" y="270" font-size="12" fill="#444">81%</text>
<text x="200" y="294" font-size="12" text-anchor="end" fill="#333">pandoc</text>
<rect x="210" y="283" width="363.8" height="16" rx="3" fill="#9a6bb0"/>
<text x="581.8" y="296" font-size="12" fill="#444">76%</text>
</svg>
